<svg width="961" height="495" viewBox="0 0 961 495" fill="none" xmlns="http://www.w3.org/2000/svg">
<path id="ALL STAR." d="M160.232 162.832H74.984L59.144 202H0.968L89.96 0.399986H146.12L235.4 202H176.072L160.232 162.832ZM143.528 120.784L117.608 56.272L91.688 120.784H143.528ZM273.166 0.399986H330.19V156.784H426.382V202H273.166V0.399986ZM470.548 0.399986H527.572V156.784H623.764V202H470.548V0.399986ZM96.008 494.032C79.688 494.032 63.848 492.016 48.488 487.984C33.128 483.952 20.648 478.576 11.048 471.856L29.768 429.808C38.792 435.76 49.256 440.56 61.16 444.208C73.064 447.856 84.776 449.68 96.296 449.68C118.184 449.68 129.128 444.208 129.128 433.264C129.128 427.504 125.96 423.28 119.624 420.592C113.48 417.712 103.496 414.736 89.672 411.664C74.504 408.4 61.832 404.944 51.656 401.296C41.48 397.456 32.744 391.408 25.448 383.152C18.152 374.896 14.504 363.76 14.504 349.744C14.504 337.456 17.864 326.416 24.584 316.624C31.304 306.64 41.288 298.768 54.536 293.008C67.976 287.248 84.392 284.368 103.784 284.368C117.032 284.368 130.088 285.904 142.952 288.976C155.816 291.856 167.144 296.176 176.936 301.936L159.368 344.272C140.168 333.904 121.544 328.72 103.496 328.72C92.168 328.72 83.912 330.448 78.728 333.904C73.544 337.168 70.952 341.488 70.952 346.864C70.952 352.24 74.024 356.272 80.168 358.96C86.312 361.648 96.2 364.432 109.832 367.312C125.192 370.576 137.864 374.128 147.848 377.968C158.024 381.616 166.76 387.568 174.056 395.824C181.544 403.888 185.288 414.928 185.288 428.944C185.288 441.04 181.928 451.984 175.208 461.776C168.488 471.568 158.408 479.44 144.968 485.392C131.528 491.152 115.208 494.032 96.008 494.032ZM273.328 333.616H211.408V288.4H391.984V333.616H330.352V490H273.328V333.616ZM559.776 450.832H474.528L458.688 490H400.512L489.504 288.4H545.664L634.944 490H575.616L559.776 450.832ZM543.072 408.784L517.152 344.272L491.232 408.784H543.072ZM760.838 436.432H729.734V490H672.71V288.4H764.87C783.11 288.4 798.95 291.472 812.39 297.616C825.83 303.568 836.198 312.208 843.494 323.536C850.79 334.672 854.438 347.824 854.438 362.992C854.438 377.584 850.982 390.352 844.07 401.296C837.35 412.048 827.654 420.496 814.982 426.64L858.47 490H797.414L760.838 436.432ZM796.838 362.992C796.838 353.584 793.862 346.288 787.91 341.104C781.958 335.92 773.126 333.328 761.414 333.328H729.734V392.368H761.414C773.126 392.368 781.958 389.872 787.91 384.88C793.862 379.696 796.838 372.4 796.838 362.992ZM927.946 492.592C918.73 492.592 910.954 489.52 904.618 483.376C898.282 477.232 895.114 469.456 895.114 460.048C895.114 450.448 898.186 442.672 904.33 436.72C910.666 430.768 918.538 427.792 927.946 427.792C937.546 427.792 945.418 430.768 951.562 436.72C957.706 442.672 960.778 450.448 960.778 460.048C960.778 469.456 957.61 477.232 951.274 483.376C945.13 489.52 937.354 492.592 927.946 492.592Z" fill="#2173ED" fill-opacity="0.4"/>
</svg>
