<svg xmlns="http://www.w3.org/2000/svg" width="264" height="280" fill="none" viewBox="0 0 264 280"><mask id="mask0" width="200" height="244" x="32" y="36" mask-type="alpha" maskUnits="userSpaceOnUse"><path fill="#fff" d="M156 180.611V199H160C199.765 199 232 231.235 232 271V280H32V271C32 231.235 64.2355 199 104 199H108V180.611C90.7626 172.422 78.3722 155.687 76.3051 135.881C70.4803 135.058 66 130.052 66 124V110C66 104.054 70.3246 99.1181 76 98.1659V92C76 61.0721 101.072 36 132 36C162.928 36 188 61.0721 188 92V98.1659C193.675 99.1181 198 104.054 198 110V124C198 130.052 193.52 135.058 187.695 135.881C185.628 155.687 173.237 172.422 156 180.611Z"/></mask><g mask="url(#mask0)"><path fill="#D0C6AC" d="M156 180.611V199H160C199.765 199 232 231.235 232 271V280H32V271C32 231.235 64.2355 199 104 199H108V180.611C90.7626 172.422 78.3722 155.687 76.3051 135.881C70.4803 135.058 66 130.052 66 124V110C66 104.054 70.3246 99.1181 76 98.1659V92C76 61.0721 101.072 36 132 36C162.928 36 188 61.0721 188 92V98.1659C193.675 99.1181 198 104.054 198 110V124C198 130.052 193.52 135.058 187.695 135.881C185.628 155.687 173.237 172.422 156 180.611Z"/><path fill="#EDB98A" d="M264 36H0V280H264V36Z"/><path fill="#000" fill-opacity=".1" fill-rule="evenodd" d="M188 115V138C188 168.928 162.928 194 132 194C101.072 194 76 168.928 76 138V115V130C76 160.928 101.072 186 132 186C162.928 186 188 160.928 188 130V115Z" clip-rule="evenodd"/></g><mask id="mask1" width="200" height="97" x="32" y="183" mask-type="alpha" maskUnits="userSpaceOnUse"><path fill="#fff" fill-rule="evenodd" d="M108 183.071C90.0813 185.076 76.2798 190.552 76.0042 204.645C50.1464 215.568 32 241.165 32 270.999V280H232V270.999C232 241.165 213.854 215.568 187.996 204.645C187.72 190.552 173.919 185.076 156 183.071V202C156 215.255 145.255 226 132 226C118.745 226 108 215.255 108 202V183.071Z" clip-rule="evenodd"/></mask><g mask="url(#mask1)"><path fill="#B7C1DB" fill-rule="evenodd" d="M108 183.071C90.0813 185.076 76.2798 190.552 76.0042 204.645C50.1464 215.568 32 241.165 32 270.999V280H232V270.999C232 241.165 213.854 215.568 187.996 204.645C187.72 190.552 173.919 185.076 156 183.071V202C156 215.255 145.255 226 132 226C118.745 226 108 215.255 108 202V183.071Z" clip-rule="evenodd"/><path fill="#161616" d="M264 170H0V280H264V170Z"/><path fill="#F4F4F4" fill-rule="evenodd" d="M102 231.739V280H95V228.15C97.2038 229.46 99.5468 230.661 102 231.739ZM169 228.15V268.5C169 270.433 167.433 272 165.5 272C163.567 272 162 270.433 162 268.5V231.739C164.453 230.661 166.796 229.46 169 228.15Z" clip-rule="evenodd"/><path fill="#000" fill-opacity=".16" fill-rule="evenodd" d="M90.9601 182.724C75.9093 185.571 65.5 191.243 65.5 202.307C65.5 222.02 98.5377 238 132 238C165.462 238 198.5 222.02 198.5 202.307C198.5 191.243 188.091 185.571 173.04 182.724C182.125 186.074 188 191.706 188 201.077C188 221.469 160.179 238 132 238C103.821 238 76 221.469 76 201.077C76 191.706 81.8751 186.074 90.9601 182.724Z" clip-rule="evenodd"/></g><mask id="mask2" width="38" height="19" x="113" y="147" mask-type="alpha" maskUnits="userSpaceOnUse"><path fill="#fff" fill-rule="evenodd" d="M113.117 149.128C114.175 158.62 122.225 166 131.999 166C141.803 166 149.873 158.574 150.891 149.04C150.973 148.273 150.116 147 149.042 147C134.148 147 122.737 147 115.086 147C114.006 147 113.011 148.178 113.117 149.128Z" clip-rule="evenodd"/></mask><g mask="url(#mask2)"><path fill="#000" fill-opacity=".7" fill-rule="evenodd" d="M113.117 149.128C114.175 158.62 122.225 166 131.999 166C141.803 166 149.873 158.574 150.891 149.04C150.973 148.273 150.116 147 149.042 147C134.148 147 122.737 147 115.086 147C114.006 147 113.011 148.178 113.117 149.128Z" clip-rule="evenodd"/><path fill="#fff" d="M143 136H122C119.239 136 117 138.239 117 141V147C117 149.761 119.239 152 122 152H143C145.761 152 148 149.761 148 147V141C148 138.239 145.761 136 143 136Z"/><path fill="#FF4F6D" d="M127 180C133.075 180 138 175.075 138 169C138 162.925 133.075 158 127 158C120.925 158 116 162.925 116 169C116 175.075 120.925 180 127 180Z"/><path fill="#FF4F6D" d="M137 180C143.075 180 148 175.075 148 169C148 162.925 143.075 158 137 158C130.925 158 126 162.925 126 169C126 175.075 130.925 180 137 180Z"/></g><path fill="#000" fill-opacity=".16" fill-rule="evenodd" d="M120 130C120 134.418 125.373 138 132 138C138.627 138 144 134.418 144 130" clip-rule="evenodd"/><path fill="#000" fill-opacity=".6" fill-rule="evenodd" d="M103.241 110.346C102.463 111.357 102 112.625 102 114C102 117.314 104.686 120 108 120C111.314 120 114 117.314 114 114C114 113.71 113.979 113.424 113.94 113.145C113.947 112.923 113.91 112.671 113.815 112.407C113.77 112.281 113.722 112.157 113.671 112.035C113.337 111.072 112.765 110.22 112.025 109.551C109.899 107.317 106.506 106 102.998 106C98.1644 106 94.0067 108.649 92.1602 112.447C91.6201 113.558 92.5468 114.3 93.4375 113.572C95.8738 111.579 99.2572 110.344 102.998 110.344C103.079 110.344 103.16 110.344 103.241 110.346Z" clip-rule="evenodd"/><path fill="#000" fill-opacity=".6" fill-rule="evenodd" d="M161.241 110.346C160.463 111.357 160 112.625 160 114C160 117.314 162.686 120 166 120C169.314 120 172 117.314 172 114C172 113.71 171.979 113.424 171.94 113.145C171.947 112.923 171.91 112.671 171.815 112.407C171.77 112.281 171.722 112.157 171.671 112.035C171.337 111.072 170.765 110.22 170.025 109.551C167.899 107.317 164.506 106 160.998 106C156.164 106 152.007 108.649 150.16 112.447C149.62 113.558 150.547 114.3 151.438 113.572C153.874 111.579 157.257 110.344 160.998 110.344C161.079 110.344 161.16 110.344 161.241 110.346Z" clip-rule="evenodd"/><path fill="#000" fill-opacity=".6" d="M91.6304 99.1585C95.5453 93.6498 106.278 90.5607 115.523 92.8311C116.596 93.0945 117.679 92.4384 117.942 91.3658C118.206 90.2931 117.55 89.2099 116.477 88.9465C105.741 86.3099 93.3123 89.8869 88.3699 96.8413C87.73 97.7417 87.9412 98.9903 88.8416 99.6301C89.7419 100.27 90.9905 100.059 91.6304 99.1585Z"/><path fill="#000" fill-opacity=".6" d="M172.37 99.1585C168.455 93.6498 157.722 90.5607 148.477 92.8311C147.404 93.0945 146.321 92.4384 146.058 91.3658C145.794 90.2931 146.45 89.2099 147.523 88.9465C158.259 86.3099 170.688 89.8869 175.63 96.8413C176.27 97.7417 176.059 98.9903 175.158 99.6301C174.258 100.27 173.009 100.059 172.37 99.1585Z"/><mask id="mask3" width="264" height="280" x="0" y="0" mask-type="alpha" maskUnits="userSpaceOnUse"><path fill="#fff" d="M264 0H0V280H264V0Z"/></mask><g mask="url(#mask3)"><path fill="#F4F4F4" d="M69 250C73.9706 250 78 245.971 78 241C78 236.029 73.9706 232 69 232C64.0294 232 60 236.029 60 241C60 245.971 64.0294 250 69 250Z"/><path fill="#F4F4F4" d="M70 176H68V234H70V176Z"/><path fill="#F4F4F4" d="M195 242C199.971 242 204 237.971 204 233C204 228.029 199.971 224 195 224C190.029 224 186 228.029 186 233C186 237.971 190.029 242 195 242Z"/><path fill="#F4F4F4" d="M196 168H194V226H196V168Z"/><path fill="#F4F4F4" d="M132 40C143.046 40 152 31.0457 152 20C152 8.9543 143.046 0 132 0C120.954 0 112 8.9543 112 20C112 31.0457 120.954 40 132 40Z"/><mask id="mask4" width="144" height="170" x="60" y="21" mask-type="alpha" maskUnits="userSpaceOnUse"><path fill="#fff" fill-rule="evenodd" d="M132 21C186.773 21 204 68.8032 204 103.045V176.91C204 196.405 181.367 196.447 181.367 165.989V86.5347C181.367 80.4596 177.635 77.5347 171.551 77.5347H132H92.4486C86.3649 77.5347 82.6331 80.4596 82.6331 86.5347V165.989C82.6331 196.447 60 196.405 60 176.91V103.045C60 68.8032 77.2273 21 132 21Z" clip-rule="evenodd"/></mask><g mask="url(#mask4)"><path fill="#F4F4F4" fill-rule="evenodd" d="M132 21C186.773 21 204 68.8032 204 103.045V176.91C204 196.405 181.367 196.447 181.367 165.989V86.5347C181.367 80.4596 177.635 77.5347 171.551 77.5347H132H92.4486C86.3649 77.5347 82.6331 80.4596 82.6331 86.5347V165.989C82.6331 196.447 60 196.405 60 176.91V103.045C60 68.8032 77.2273 21 132 21Z" clip-rule="evenodd"/><path fill="#EEE" d="M324 0H60V280H324V0Z"/><path fill="#000" fill-opacity=".2" d="M205 21H59V67H205V21Z"/><path fill="#fff" fill-opacity=".5" fill-rule="evenodd" d="M101.5 50L89 32H114L101.5 50Z" clip-rule="evenodd"/><path fill="#fff" fill-opacity=".5" fill-rule="evenodd" d="M132.5 50L120 32H145L132.5 50Z" clip-rule="evenodd"/><path fill="#fff" fill-opacity=".5" fill-rule="evenodd" d="M163.5 50L151 32H176L163.5 50Z" clip-rule="evenodd"/><path fill="#000" fill-opacity=".5" fill-rule="evenodd" d="M85.5 41L98 59H73L85.5 41Z" clip-rule="evenodd"/><path fill="#000" fill-opacity=".5" fill-rule="evenodd" d="M116.5 41L129 59H104L116.5 41Z" clip-rule="evenodd"/><path fill="#000" fill-opacity=".5" fill-rule="evenodd" d="M147.5 41L160 59H135L147.5 41Z" clip-rule="evenodd"/><path fill="#000" fill-opacity=".5" fill-rule="evenodd" d="M178.5 41L191 59H166L178.5 41Z" clip-rule="evenodd"/></g></g></svg>