<svg xmlns="http://www.w3.org/2000/svg" width="914" height="106" fill="none" viewBox="0 0 914 106"><path id="PROJECTS." fill="#2173ED" fill-opacity=".4" d="M46.16 2.19999C55.28 2.19999 63.2 3.73599 69.92 6.80799C76.64 9.784 81.824 14.104 85.472 19.768C89.12 25.336 90.944 31.912 90.944 39.496C90.944 47.08 89.12 53.656 85.472 59.224C81.824 64.792 76.64 69.112 69.92 72.184C63.2 75.16 55.28 76.648 46.16 76.648H28.592V103H0.08V2.19999H46.16ZM44.432 54.184C50.288 54.184 54.704 52.936 57.68 50.44C60.656 47.848 62.144 44.2 62.144 39.496C62.144 34.792 60.656 31.144 57.68 28.552C54.704 25.96 50.288 24.664 44.432 24.664H28.592V54.184H44.432ZM159.71 76.216H144.158V103H115.646V2.19999H161.726C170.846 2.19999 178.766 3.73599 185.486 6.80799C192.206 9.784 197.39 14.104 201.038 19.768C204.686 25.336 206.51 31.912 206.51 39.496C206.51 46.792 204.782 53.176 201.326 58.648C197.966 64.024 193.118 68.248 186.782 71.32L208.526 103H177.998L159.71 76.216ZM177.71 39.496C177.71 34.792 176.222 31.144 173.246 28.552C170.27 25.96 165.854 24.664 159.998 24.664H144.158V54.184H159.998C165.854 54.184 170.27 52.936 173.246 50.44C176.222 47.848 177.71 44.2 177.71 39.496ZM283.871 105.016C273.215 105.016 263.615 102.76 255.071 98.248C246.623 93.736 239.951 87.496 235.055 79.528C230.255 71.56 227.855 62.584 227.855 52.6C227.855 42.616 230.255 33.64 235.055 25.672C239.951 17.704 246.623 11.464 255.071 6.95199C263.615 2.43999 273.215 0.183993 283.871 0.183993C294.527 0.183993 304.079 2.43999 312.527 6.95199C321.071 11.464 327.743 17.704 332.543 25.672C337.439 33.64 339.887 42.616 339.887 52.6C339.887 62.584 337.439 71.56 332.543 79.528C327.743 87.496 321.071 93.736 312.527 98.248C304.079 102.76 294.527 105.016 283.871 105.016ZM283.871 81.4C288.959 81.4 293.567 80.2 297.695 77.8C301.823 75.4 305.087 72.04 307.487 67.72C309.887 63.304 311.087 58.264 311.087 52.6C311.087 46.936 309.887 41.944 307.487 37.624C305.087 33.208 301.823 29.8 297.695 27.4C293.567 25 288.959 23.8 283.871 23.8C278.783 23.8 274.175 25 270.047 27.4C265.919 29.8 262.655 33.208 260.255 37.624C257.855 41.944 256.655 46.936 256.655 52.6C256.655 58.264 257.855 63.304 260.255 67.72C262.655 72.04 265.919 75.4 270.047 77.8C274.175 80.2 278.783 81.4 283.871 81.4ZM385.543 105.016C378.151 105.016 371.431 103.768 365.383 101.272C359.335 98.68 354.391 94.984 350.551 90.184L366.103 71.752C371.479 78.76 377.287 82.264 383.527 82.264C387.655 82.264 390.775 81.016 392.887 78.52C395.095 76.024 396.199 72.376 396.199 67.576V24.232H361.351V2.19999H424.423V65.848C424.423 78.904 421.111 88.696 414.487 95.224C407.959 101.752 398.311 105.016 385.543 105.016ZM535.396 80.968V103H454.468V2.19999H533.524V24.232H482.692V41.224H527.476V62.536H482.692V80.968H535.396ZM612.133 105.016C601.573 105.016 592.069 102.808 583.621 98.392C575.269 93.88 568.693 87.64 563.893 79.672C559.093 71.704 556.693 62.68 556.693 52.6C556.693 42.52 559.093 33.496 563.893 25.528C568.693 17.56 575.269 11.368 583.621 6.95199C592.069 2.43999 601.573 0.183993 612.133 0.183993C621.349 0.183993 629.653 1.816 637.045 5.08C644.437 8.344 650.581 13.048 655.477 19.192L637.333 35.608C630.805 27.736 622.885 23.8 613.573 23.8C608.101 23.8 603.205 25 598.885 27.4C594.661 29.8 591.349 33.208 588.949 37.624C586.645 41.944 585.493 46.936 585.493 52.6C585.493 58.264 586.645 63.304 588.949 67.72C591.349 72.04 594.661 75.4 598.885 77.8C603.205 80.2 608.101 81.4 613.573 81.4C622.885 81.4 630.805 77.464 637.333 69.592L655.477 86.008C650.581 92.152 644.437 96.856 637.045 100.12C629.653 103.384 621.349 105.016 612.133 105.016ZM699.602 24.808H668.642V2.19999H758.93V24.808H728.114V103H699.602V24.808ZM815.495 105.016C807.335 105.016 799.415 104.008 791.735 101.992C784.055 99.976 777.815 97.288 773.015 93.928L782.375 72.904C786.887 75.88 792.119 78.28 798.071 80.104C804.023 81.928 809.879 82.84 815.639 82.84C826.583 82.84 832.055 80.104 832.055 74.632C832.055 71.752 830.471 69.64 827.303 68.296C824.231 66.856 819.239 65.368 812.327 63.832C804.743 62.2 798.407 60.472 793.319 58.648C788.231 56.728 783.863 53.704 780.215 49.576C776.567 45.448 774.743 39.88 774.743 32.872C774.743 26.728 776.423 21.208 779.783 16.312C783.143 11.32 788.135 7.384 794.759 4.504C801.479 1.62399 809.687 0.183993 819.383 0.183993C826.007 0.183993 832.535 0.951995 838.967 2.488C845.399 3.928 851.063 6.08799 855.959 8.96799L847.175 30.136C837.575 24.952 828.263 22.36 819.239 22.36C813.575 22.36 809.447 23.224 806.855 24.952C804.263 26.584 802.967 28.744 802.967 31.432C802.967 34.12 804.503 36.136 807.575 37.48C810.647 38.824 815.591 40.216 822.407 41.656C830.087 43.288 836.423 45.064 841.415 46.984C846.503 48.808 850.871 51.784 854.519 55.912C858.263 59.944 860.135 65.464 860.135 72.472C860.135 78.52 858.455 83.992 855.095 88.888C851.735 93.784 846.695 97.72 839.975 100.696C833.255 103.576 825.095 105.016 815.495 105.016ZM897.142 104.296C892.534 104.296 888.646 102.76 885.478 99.688C882.31 96.616 880.726 92.728 880.726 88.024C880.726 83.224 882.262 79.336 885.334 76.36C888.502 73.384 892.438 71.896 897.142 71.896C901.942 71.896 905.878 73.384 908.95 76.36C912.022 79.336 913.558 83.224 913.558 88.024C913.558 92.728 911.974 96.616 908.806 99.688C905.734 102.76 901.846 104.296 897.142 104.296Z"/></svg>