<?xml version="1.0" standalone="no"?>
<!DOCTYPE svg PUBLIC "-//W3C//DTD SVG 20010904//EN"
 "http://www.w3.org/TR/2001/REC-SVG-20010904/DTD/svg10.dtd">
<svg version="1.0" xmlns="http://www.w3.org/2000/svg"
 width="674.000000pt" height="674.000000pt" viewBox="0 0 674.000000 674.000000"
 preserveAspectRatio="xMidYMid meet">
<metadata>
Created by potrace 1.11, written by Peter Selinger 2001-2013
</metadata>
<g transform="translate(0.000000,674.000000) scale(0.100000,-0.100000)"
fill="#000000" stroke="none">
<path d="M2650 6599 c-281 -59 -527 -146 -805 -284 -360 -177 -707 -434 -964
-715 -476 -517 -755 -1101 -858 -1795 -22 -153 -25 -667 -5 -815 97 -689 368
-1275 827 -1790 460 -517 1118 -894 1810 -1039 271 -57 355 -63 761 -58 324 3
384 7 489 26 211 38 346 71 510 126 868 286 1567 887 1970 1694 356 714 433
1539 215 2309 -149 527 -439 1020 -835 1417 -278 280 -547 472 -910 650 -271
134 -528 222 -808 279 -114 23 -150 26 -315 24 -103 0 -171 -3 -152 -5 188
-17 274 -28 390 -49 663 -120 1277 -441 1755 -919 528 -526 843 -1174 937
-1925 17 -137 17 -563 0 -700 -94 -751 -409 -1399 -937 -1925 -809 -808 -1961
-1140 -3100 -894 -178 39 -451 129 -629 208 -924 410 -1617 1222 -1855 2171
-76 301 -95 461 -95 790 0 344 28 558 114 864 286 1018 1082 1852 2102 2201
292 100 502 143 878 178 19 2 -53 4 -160 5 -178 0 -206 -2 -330 -29z"/>
<path d="M3130 6583 c-51 -5 -68 -16 -52 -35 15 -19 131 -11 139 9 6 15 -14
34 -32 31 -5 -1 -30 -3 -55 -5z"/>
<path d="M3300 6571 c0 -16 9 -20 61 -23 68 -3 85 2 76 26 -5 12 -21 16 -72
16 -57 0 -65 -2 -65 -19z"/>
<path d="M3528 6579 c-6 -4 -8 -14 -5 -22 3 -9 25 -16 64 -19 62 -6 91 5 73
27 -12 14 -115 24 -132 14z"/>
<path d="M2912 6561 c-50 -9 -72 -25 -55 -42 8 -8 31 -8 75 -3 53 8 63 12 63
29 0 23 -19 26 -83 16z"/>
<path d="M3749 6559 c-26 -16 1 -36 60 -46 49 -8 64 -7 73 4 7 8 8 17 2 23
-13 13 -121 28 -135 19z"/>
<path d="M2675 6517 c-62 -19 -53 -43 14 -39 60 3 94 17 88 35 -5 17 -54 18
-102 4z"/>
<path d="M3964 6515 c-9 -22 2 -30 58 -44 65 -15 78 -14 78 9 0 19 -9 23 -102
46 -21 4 -29 2 -34 -11z"/>
<path d="M2468 6464 c-45 -14 -61 -35 -39 -49 6 -3 37 2 70 11 46 13 61 22 61
36 0 22 -25 23 -92 2z"/>
<path d="M4181 6466 c-9 -11 -9 -16 1 -23 27 -17 117 -40 129 -33 21 14 2 36
-42 49 -24 7 -51 14 -60 17 -9 2 -22 -2 -28 -10z"/>
<path d="M3163 6424 c-7 -18 15 -36 35 -29 8 3 34 5 58 5 37 0 44 3 44 20 0
18 -7 20 -65 20 -51 0 -67 -4 -72 -16z"/>
<path d="M3375 6430 c-13 -21 8 -30 71 -30 57 0 64 2 64 20 0 18 -7 20 -64 20
-36 0 -68 -4 -71 -10z"/>
<path d="M2987 6423 c-30 -5 -47 -30 -29 -42 13 -8 118 1 128 12 4 3 4 13 1
22 -6 15 -36 17 -100 8z"/>
<path d="M3584 6419 c-11 -18 8 -27 72 -34 67 -7 93 6 59 32 -22 16 -121 18
-131 2z"/>
<path d="M2270 6400 c-30 -11 -56 -20 -57 -20 -2 0 -3 -9 -3 -20 0 -25 16 -25
85 1 39 15 55 26 53 37 -4 23 -17 23 -78 2z"/>
<path d="M3794 6398 c-11 -17 21 -35 78 -42 84 -11 94 25 12 45 -53 12 -81 11
-90 -3z"/>
<path d="M4390 6391 c0 -13 16 -24 60 -40 33 -12 65 -19 70 -16 22 14 7 34
-41 54 -64 26 -89 27 -89 2z"/>
<path d="M2805 6395 c-5 -2 -22 -6 -37 -9 -28 -6 -37 -29 -18 -41 5 -3 37 -1
70 6 48 9 60 15 60 30 0 15 -7 19 -32 18 -18 0 -37 -2 -43 -4z"/>
<path d="M4005 6360 c-11 -18 6 -29 65 -45 57 -15 70 -13 70 11 0 26 -121 57
-135 34z"/>
<path d="M2590 6348 c-45 -12 -68 -34 -53 -49 7 -7 27 -6 68 5 65 17 70 20 62
41 -7 17 -26 18 -77 3z"/>
<path d="M2064 6316 c-57 -26 -72 -42 -56 -58 16 -16 127 35 127 58 0 26 -15
26 -71 0z"/>
<path d="M4597 6323 c-4 -3 -7 -10 -7 -15 0 -12 119 -70 130 -63 22 14 7 36
-40 60 -50 26 -71 30 -83 18z"/>
<path d="M4214 6305 c-4 -9 -3 -20 2 -24 16 -15 113 -43 124 -36 22 13 8 34
-32 49 -78 27 -88 29 -94 11z"/>
<path d="M3003 6272 c-73 -21 -123 -41 -123 -48 0 -7 5 -25 10 -39 10 -25 13
-27 53 -21 l42 6 52 -186 c29 -103 52 -189 50 -190 -3 -3 -51 40 -295 259
l-132 119 -92 -27 c-51 -15 -94 -28 -95 -29 -1 -1 2 -19 8 -39 10 -36 11 -37
47 -31 l38 6 67 -239 c37 -132 67 -242 67 -246 0 -4 -14 -14 -31 -22 -27 -15
-30 -20 -23 -48 3 -18 8 -34 10 -36 4 -5 236 58 253 69 8 4 8 15 0 38 -10 29
-15 32 -55 32 l-43 0 -16 53 c-8 28 -32 114 -53 189 l-39 137 46 -39 c25 -21
124 -108 220 -192 l175 -154 53 15 c29 8 53 19 53 25 0 6 -35 136 -79 289
l-78 278 31 16 c17 8 32 16 33 17 5 5 -19 76 -25 75 -4 -1 -62 -17 -129 -37z"/>
<path d="M2385 6288 c-39 -14 -55 -27 -55 -44 0 -19 35 -17 90 4 76 30 43 68
-35 40z"/>
<path d="M3496 6284 c-15 -38 -6 -65 24 -75 17 -6 30 -18 30 -26 0 -13 -73
-408 -85 -460 -4 -18 -12 -23 -40 -23 -38 0 -40 -2 -49 -46 l-7 -31 133 -26
c73 -14 134 -24 136 -23 1 2 5 19 8 38 6 33 4 36 -34 51 l-39 16 23 123 c13
68 29 153 36 190 6 37 14 66 17 64 3 -2 53 -121 111 -265 58 -143 111 -263
117 -265 7 -3 34 -8 60 -12 l48 -6 54 291 55 291 37 0 c36 0 39 2 45 35 3 20
4 38 2 41 -6 5 -260 55 -263 51 -1 -1 -5 -19 -9 -39 -7 -36 -6 -37 34 -49 22
-7 40 -17 40 -23 0 -17 -69 -368 -73 -373 -2 -2 -39 87 -83 198 -43 111 -80
205 -82 210 -2 4 5 9 15 12 15 4 14 5 -4 6 -16 1 -25 12 -38 51 -17 52 -18 53
-110 70 -33 6 -70 13 -81 15 -14 3 -24 -1 -28 -11z"/>
<path d="M1862 6219 c-59 -33 -67 -43 -48 -58 10 -8 27 -3 69 20 56 30 71 52
43 62 -7 3 -36 -8 -64 -24z"/>
<path d="M4417 6243 c-17 -16 -3 -32 48 -53 92 -37 121 -6 33 35 -56 26 -70
29 -81 18z"/>
<path d="M4807 6233 c-17 -16 -3 -33 48 -62 31 -18 60 -29 65 -26 22 14 7 36
-42 65 -57 32 -61 33 -71 23z"/>
<path d="M2178 6209 c-47 -21 -62 -44 -34 -55 20 -8 129 43 124 58 -7 21 -39
19 -90 -3z"/>
<path d="M4611 6156 c-13 -16 -6 -24 57 -55 24 -13 50 -20 58 -17 28 11 13 32
-41 59 -65 32 -60 31 -74 13z"/>
<path d="M1993 6122 c-52 -26 -67 -47 -39 -58 22 -9 118 44 114 63 -5 25 -18
24 -75 -5z"/>
<path d="M1663 6105 c-29 -19 -53 -40 -53 -45 0 -22 31 -21 67 1 62 37 75 50
62 66 -15 17 -16 17 -76 -22z"/>
<path d="M4993 6115 c-3 -9 -4 -17 -2 -19 35 -27 101 -66 113 -66 35 0 15 37
-37 68 -61 37 -65 38 -74 17z"/>
<path d="M4797 6063 c-14 -13 -6 -22 48 -53 88 -50 120 -20 34 32 -44 27 -70
34 -82 21z"/>
<path d="M4407 6030 c-18 -29 -18 -30 12 -57 l30 -28 -116 -222 c-112 -215
-116 -221 -140 -212 -13 5 -30 9 -36 9 -12 0 -53 -58 -45 -64 1 -2 56 -31 120
-65 l118 -62 16 34 c17 35 17 36 -11 59 l-28 24 113 220 c62 120 114 220 116
222 1 2 19 -1 39 -7 35 -9 36 -9 52 25 9 18 15 35 12 37 -9 8 -223 117 -229
117 -3 0 -14 -13 -23 -30z"/>
<path d="M1803 6019 c-56 -32 -60 -38 -41 -57 8 -8 22 -5 57 15 64 37 71 43
64 59 -8 20 -21 17 -80 -17z"/>
<path d="M1481 5983 c-50 -35 -62 -55 -41 -68 13 -8 120 64 120 81 0 26 -30
21 -79 -13z"/>
<path d="M5187 6003 c-16 -15 -4 -33 43 -68 46 -34 80 -41 80 -16 0 10 -100
91 -112 91 -2 0 -8 -3 -11 -7z"/>
<path d="M2080 5947 c-92 -26 -173 -97 -205 -180 -28 -75 -19 -185 24 -272 73
-148 208 -243 332 -232 99 9 202 78 246 165 14 28 18 60 18 132 0 91 -2 98
-39 167 -51 97 -102 153 -173 191 -69 36 -140 47 -203 29z m128 -118 c82 -40
173 -185 180 -288 3 -46 0 -62 -20 -91 -51 -75 -136 -101 -214 -64 -47 23
-108 94 -147 173 -26 53 -32 78 -32 128 0 72 19 105 81 140 49 28 96 29 152 2z"/>
<path d="M4980 5945 c0 -8 23 -30 52 -49 39 -27 55 -33 65 -25 16 14 10 24
-39 60 -44 31 -78 38 -78 14z"/>
<path d="M1627 5908 c-43 -30 -63 -68 -35 -68 23 0 109 63 106 78 -5 26 -22
23 -71 -10z"/>
<path d="M1303 5844 c-43 -35 -53 -57 -33 -69 13 -8 110 72 110 91 0 24 -33
15 -77 -22z"/>
<path d="M5354 5859 c-7 -13 82 -98 103 -99 32 -1 23 27 -21 67 -49 44 -69 52
-82 32z"/>
<path d="M5157 5833 c-13 -13 -7 -22 43 -58 46 -34 80 -41 80 -16 0 13 -89 81
-105 81 -6 0 -15 -3 -18 -7z"/>
<path d="M1458 5783 c-45 -36 -57 -62 -32 -70 16 -5 105 69 102 85 -5 27 -22
23 -70 -15z"/>
<path d="M4883 5752 l-21 -28 24 -28 24 -28 -48 -57 c-26 -32 -99 -119 -161
-194 l-114 -137 -33 19 -33 20 -21 -26 c-11 -14 -20 -29 -20 -33 0 -10 390
-340 401 -340 4 0 32 30 62 66 l55 66 -34 31 -35 30 -32 -31 -32 -31 -87 72
c-48 40 -87 76 -87 80 -1 11 119 157 129 157 4 0 45 -31 91 -70 45 -38 86 -70
90 -70 4 0 19 14 33 31 32 37 33 34 -76 125 l-78 66 56 66 c31 37 60 68 65 70
6 2 72 -50 163 -129 5 -4 -1 -21 -13 -37 -28 -39 -27 -42 13 -74 l35 -28 55
67 c31 37 56 70 55 73 -1 8 -381 325 -394 328 -6 1 -20 -10 -32 -26z"/>
<path d="M1136 5691 c-45 -45 -53 -71 -22 -71 21 0 99 87 93 104 -10 24 -19
20 -71 -33z"/>
<path d="M5533 5723 c-22 -8 -14 -28 30 -71 42 -41 77 -55 77 -29 0 19 -93
105 -107 100z"/>
<path d="M5324 5696 c-6 -15 72 -95 93 -96 29 0 22 25 -18 66 -45 46 -66 54
-75 30z"/>
<path d="M1291 5636 c-40 -41 -47 -66 -17 -66 19 0 99 87 92 99 -13 20 -31 12
-75 -33z"/>
<path d="M981 5533 c-41 -46 -48 -68 -20 -68 19 0 102 92 94 105 -12 20 -34 9
-74 -37z"/>
<path d="M5482 5558 c-14 -17 72 -113 93 -104 23 9 18 23 -26 71 -45 49 -51
52 -67 33z"/>
<path d="M5684 5555 c-7 -17 74 -117 90 -112 23 8 15 35 -24 80 -44 50 -57 56
-66 32z"/>
<path d="M1467 5540 c-53 -16 -83 -44 -287 -263 l-53 -57 23 -25 c28 -30 35
-31 67 -5 l26 20 106 -99 c58 -54 142 -132 185 -173 l80 -74 -22 -31 -21 -30
28 -27 28 -27 92 98 c50 54 91 100 91 104 0 3 -13 15 -29 27 l-29 21 -26 -20
c-26 -20 -26 -20 -53 -1 -16 11 -48 41 -72 66 l-44 45 38 43 c21 24 42 44 46
46 3 2 68 -20 143 -48 76 -29 143 -50 150 -47 7 3 31 27 54 54 l41 50 -26 25
c-24 24 -27 25 -52 10 -26 -15 -33 -13 -134 22 l-106 38 5 42 c9 66 -10 118
-61 165 -65 60 -114 73 -188 51z m101 -135 c61 -51 49 -114 -38 -200 l-49 -48
-74 69 -75 68 41 50 c75 89 138 109 195 61z"/>
<path d="M1136 5490 c-39 -44 -44 -58 -21 -66 16 -7 94 71 95 94 0 25 -39 11
-74 -28z"/>
<path d="M3140 5500 c-13 -8 -12 -10 3 -10 9 0 17 5 17 10 0 12 -1 12 -20 0z"/>
<path d="M3310 5507 c0 -6 -457 -1354 -481 -1419 l-21 -58 -717 -2 -716 -3
555 -392 c305 -215 563 -398 572 -405 17 -12 2 -62 -202 -702 -121 -379 -218
-691 -216 -693 2 -2 282 175 622 392 340 218 625 394 634 392 8 -2 291 -180
629 -396 337 -216 615 -391 617 -389 5 5 -167 542 -176 548 -4 3 -10 23 -13
45 -4 22 -60 209 -125 415 -117 373 -118 375 -98 391 12 9 268 191 571 405
l549 389 -715 3 -715 2 -248 723 c-137 397 -253 730 -258 740 -7 14 -48 26
-48 14z"/>
<path d="M836 5363 c-40 -51 -45 -73 -18 -73 20 0 96 96 87 110 -12 20 -33 9
-69 -37z"/>
<path d="M5625 5399 c-7 -11 62 -100 83 -107 29 -9 22 30 -13 73 -37 45 -58
55 -70 34z"/>
<path d="M5825 5390 c-7 -12 -2 -22 43 -77 37 -46 49 -52 58 -28 4 9 -10 36
-32 65 -37 49 -57 60 -69 40z"/>
<path d="M1001 5333 c-42 -46 -47 -66 -20 -71 19 -4 92 85 85 103 -9 24 -22
18 -65 -32z"/>
<path d="M5757 5238 c-7 -20 70 -118 88 -112 22 9 19 21 -21 75 -35 49 -57 61
-67 37z"/>
<path d="M733 5217 c-29 -32 -63 -84 -63 -95 0 -5 6 -12 14 -15 10 -4 27 11
48 41 49 67 49 69 35 81 -11 8 -19 5 -34 -12z"/>
<path d="M5964 5206 c-6 -17 55 -116 72 -116 28 0 24 24 -10 76 -37 55 -52 65
-62 40z"/>
<path d="M872 5168 c-43 -64 -43 -65 -28 -77 12 -10 22 -2 56 43 23 30 39 60
35 66 -13 20 -35 9 -63 -32z"/>
<path d="M5880 5058 c0 -20 61 -108 75 -108 27 0 25 21 -7 70 -30 46 -68 67
-68 38z"/>
<path d="M590 5003 c-30 -48 -37 -77 -22 -87 13 -8 26 6 56 57 26 46 29 77 6
77 -5 0 -23 -21 -40 -47z"/>
<path d="M767 5008 c-49 -65 -59 -98 -29 -98 10 0 31 22 50 52 28 44 31 53 19
66 -13 12 -18 9 -40 -20z"/>
<path d="M6081 5013 c1 -28 53 -108 72 -111 25 -5 21 23 -10 79 -28 49 -64 67
-62 32z"/>
<path d="M5990 4880 c0 -16 48 -108 61 -115 6 -4 16 -2 22 4 17 17 -39 121
-64 121 -11 0 -19 -5 -19 -10z"/>
<path d="M502 4838 c-5 -7 -19 -32 -31 -56 -17 -34 -20 -47 -10 -58 6 -7 15
-11 20 -8 15 9 69 121 62 128 -10 10 -30 7 -41 -6z"/>
<path d="M643 4795 c-20 -40 -24 -58 -16 -66 6 -6 16 -8 22 -4 17 10 62 104
56 115 -14 23 -37 6 -62 -45z"/>
<path d="M6193 4829 c-15 -15 40 -129 62 -129 22 0 18 34 -10 90 -26 52 -34
57 -52 39z"/>
<path d="M6093 4694 c-7 -19 42 -124 57 -124 21 0 21 29 0 78 -23 53 -47 72
-57 46z"/>
<path d="M555 4610 c-30 -59 -32 -80 -6 -80 13 0 25 16 40 51 25 61 26 79 6
79 -8 0 -26 -22 -40 -50z"/>
<path d="M391 4599 c-23 -53 -24 -80 -4 -86 7 -3 23 19 38 52 30 69 31 85 6
85 -13 0 -25 -16 -40 -51z"/>
<path d="M6283 4624 c-8 -21 40 -129 57 -129 24 0 22 29 -4 89 -25 56 -42 69
-53 40z"/>
<path d="M6176 4501 c-6 -10 22 -99 37 -118 5 -7 14 -13 19 -13 19 0 18 29 -2
83 -20 52 -40 71 -54 48z"/>
<path d="M480 4424 c-25 -57 -26 -97 -4 -92 20 4 59 100 51 123 -11 27 -27 16
-47 -31z"/>
<path d="M319 4404 c-27 -61 -30 -99 -6 -99 13 0 24 15 37 55 24 68 24 76 4
84 -11 4 -21 -6 -35 -40z"/>
<path d="M6364 4416 c-9 -24 29 -131 46 -131 20 0 18 57 -3 108 -17 38 -34 48
-43 23z"/>
<path d="M6245 4297 c-9 -21 30 -122 48 -125 22 -4 22 29 1 91 -15 45 -39 62
-49 34z"/>
<path d="M431 4257 c-6 -8 -18 -36 -26 -63 -12 -40 -12 -51 -1 -62 17 -18 29
-2 49 65 12 42 12 55 2 63 -9 7 -16 6 -24 -3z"/>
<path d="M264 4219 c-18 -29 -33 -113 -22 -126 17 -21 35 2 47 58 6 28 11 57
11 64 0 17 -26 20 -36 4z"/>
<path d="M6420 4196 c0 -7 4 -26 9 -42 5 -16 12 -41 15 -56 7 -30 33 -38 42
-14 3 8 -2 40 -10 70 -13 44 -21 56 -36 56 -11 0 -20 -6 -20 -14z"/>
<path d="M6304 4095 c-10 -26 19 -130 36 -130 12 0 15 12 13 53 -3 74 -33 120
-49 77z"/>
<path d="M370 4040 c-6 -11 -14 -43 -17 -70 -5 -45 -4 -50 14 -50 17 0 22 10
32 60 12 59 9 80 -9 80 -5 0 -14 -9 -20 -20z"/>
<path d="M223 4012 c-13 -9 -37 -118 -28 -132 12 -19 35 -10 40 18 4 15 10 44
14 64 9 39 -4 64 -26 50z"/>
<path d="M6475 3990 c-8 -12 12 -121 24 -133 22 -22 33 6 26 62 -9 69 -31 101
-50 71z"/>
<path d="M6345 3890 c-8 -13 5 -112 17 -127 5 -6 16 -9 24 -6 12 5 14 16 9 57
-10 73 -32 106 -50 76z"/>
<path d="M330 3824 c-6 -14 -10 -46 -10 -70 0 -38 3 -45 17 -42 19 3 30 38 32
101 1 44 -24 52 -39 11z"/>
<path d="M182 3787 c-5 -7 -12 -38 -16 -70 -5 -47 -3 -59 10 -64 23 -9 31 6
38 73 5 49 4 63 -8 67 -8 3 -19 0 -24 -6z"/>
<path d="M6513 3768 c-11 -13 -3 -122 10 -134 3 -4 14 -4 23 0 14 5 15 15 9
64 -7 63 -25 92 -42 70z"/>
<path d="M6377 3684 c-14 -14 -8 -121 8 -134 22 -18 35 -3 34 38 -3 75 -21
117 -42 96z"/>
<path d="M306 3624 c-3 -9 -6 -40 -6 -70 0 -46 3 -54 19 -54 16 0 20 10 26 59
4 33 4 65 0 70 -9 16 -32 13 -39 -5z"/>
<path d="M156 3555 c-3 -9 -6 -39 -6 -66 0 -36 4 -51 16 -56 24 -9 34 16 32
77 -2 41 -7 56 -19 58 -9 2 -19 -4 -23 -13z"/>
<path d="M6531 3547 c-7 -9 -9 -35 -5 -76 6 -49 10 -61 23 -59 22 4 29 119 8
137 -11 9 -17 8 -26 -2z"/>
<path d="M6384 3467 c-10 -26 0 -130 13 -135 21 -6 36 48 26 97 -8 45 -28 65
-39 38z"/>
<path d="M300 3361 c0 -65 2 -71 20 -71 19 0 21 5 18 67 -2 55 -6 68 -20 71
-16 3 -18 -5 -18 -67z"/>
<path d="M150 3286 c0 -42 5 -67 14 -75 24 -20 38 11 32 71 -2 29 -5 56 -5 61
-1 4 -10 7 -21 7 -18 0 -20 -7 -20 -64z"/>
<path d="M6534 3327 c-3 -8 -6 -40 -7 -73 -2 -53 0 -59 18 -59 18 0 20 8 23
66 2 53 0 68 -13 73 -9 3 -18 0 -21 -7z"/>
<path d="M1360 3320 c0 -6 7 -10 15 -10 8 0 15 2 15 4 0 2 -7 6 -15 10 -8 3
-15 1 -15 -4z"/>
<path d="M6380 3241 c0 -10 -3 -39 -6 -64 -6 -39 -4 -48 11 -53 25 -10 35 12
35 79 0 50 -2 57 -20 57 -13 0 -20 -7 -20 -19z"/>
<path d="M311 3211 c-17 -11 -5 -127 14 -135 21 -8 25 3 25 64 0 60 -15 86
-39 71z"/>
<path d="M165 3121 c-10 -18 6 -129 20 -135 23 -9 32 17 26 79 -5 45 -10 61
-23 63 -9 2 -19 -2 -23 -7z"/>
<path d="M6516 3098 c-2 -7 -7 -38 -10 -69 -5 -44 -3 -58 8 -62 23 -9 34 14
38 78 2 50 0 60 -15 63 -9 2 -19 -2 -21 -10z"/>
<path d="M6366 3041 c-4 -5 -9 -37 -12 -70 -6 -53 -5 -61 10 -61 21 0 36 39
36 96 0 32 -4 44 -14 44 -8 0 -17 -4 -20 -9z"/>
<path d="M332 3001 c-16 -9 -7 -101 13 -127 23 -32 37 -6 30 54 -8 61 -22 86
-43 73z"/>
<path d="M6200 2940 c0 -25 4 -39 10 -35 6 3 10 19 10 35 0 16 -4 32 -10 35
-6 4 -10 -10 -10 -35z"/>
<path d="M195 2900 c-10 -16 4 -105 19 -126 23 -31 37 -7 30 49 -10 75 -30
107 -49 77z"/>
<path d="M6487 2877 c-3 -8 -8 -39 -12 -69 -7 -55 0 -73 23 -59 14 8 36 116
27 131 -9 14 -32 12 -38 -3z"/>
<path d="M6321 2779 c-12 -61 -6 -89 18 -75 13 8 31 71 31 109 0 20 -5 27 -19
27 -15 0 -21 -12 -30 -61z"/>
<path d="M365 2789 c-7 -10 1 -88 12 -115 3 -8 14 -14 25 -14 18 0 20 4 13 47
-12 80 -32 113 -50 82z"/>
<path d="M591 2774 c0 -11 3 -14 6 -6 3 7 2 16 -1 19 -3 4 -6 -2 -5 -13z"/>
<path d="M234 2676 c-3 -8 2 -40 10 -70 13 -45 21 -56 38 -56 22 0 22 11 -3
102 -10 39 -35 51 -45 24z"/>
<path d="M6453 2668 c-11 -14 -33 -96 -33 -122 0 -18 25 -22 36 -5 3 6 12 34
20 62 11 43 11 54 0 65 -10 11 -15 11 -23 0z"/>
<path d="M6293 2628 c-6 -7 -17 -37 -26 -65 -12 -42 -12 -55 -2 -63 17 -14 31
5 50 66 12 40 12 51 1 62 -10 11 -15 11 -23 0z"/>
<path d="M410 2568 c0 -40 31 -118 46 -118 24 0 25 22 6 80 -20 59 -52 82 -52
38z"/>
<path d="M293 2464 c-9 -25 28 -129 47 -129 22 0 23 23 3 84 -19 57 -38 75
-50 45z"/>
<path d="M6386 2448 c-3 -7 -11 -35 -20 -62 -20 -63 -20 -66 3 -66 15 0 25 15
41 57 11 31 19 62 16 70 -7 17 -35 17 -40 1z"/>
<path d="M6221 2408 c-33 -91 -35 -98 -23 -110 8 -8 15 -8 21 -2 16 15 52 115
46 125 -11 17 -35 9 -44 -13z"/>
<path d="M474 2377 c-7 -20 35 -127 51 -127 24 0 27 19 9 68 -26 70 -47 91
-60 59z"/>
<path d="M5113 2373 c9 -2 23 -2 30 0 6 3 -1 5 -18 5 -16 0 -22 -2 -12 -5z"/>
<path d="M371 2261 c-11 -7 -10 -17 3 -58 22 -68 41 -92 57 -76 10 10 9 24 -7
68 -21 63 -33 78 -53 66z"/>
<path d="M6295 2194 c-26 -59 -27 -84 -2 -84 16 0 60 93 55 117 -7 36 -29 22
-53 -33z"/>
<path d="M6131 2179 c-26 -63 -27 -82 -4 -77 19 3 61 80 62 111 1 10 -6 17
-18 17 -13 0 -25 -16 -40 -51z"/>
<path d="M554 2176 c-7 -19 34 -113 52 -120 24 -9 28 22 8 67 -29 67 -48 84
-60 53z"/>
<path d="M450 2045 c0 -22 28 -86 47 -107 12 -13 19 -15 29 -7 11 9 8 22 -16
70 -28 55 -60 78 -60 44z"/>
<path d="M5142 2045 c-19 -8 -47 -26 -63 -40 -45 -37 -239 -252 -239 -263 0
-6 15 -22 32 -36 l33 -25 25 24 25 23 160 -144 c88 -80 166 -152 174 -159 13
-13 12 -18 -10 -41 l-24 -26 35 -28 c19 -16 37 -30 40 -30 6 0 173 188 178
200 1 4 -14 19 -33 35 l-37 27 -28 -27 -28 -27 -75 69 -76 68 36 37 c20 20 49
42 65 49 40 16 73 -1 165 -85 39 -36 75 -66 80 -66 5 0 36 30 67 66 l58 65
-28 30 c-33 34 -45 36 -69 9 -18 -19 -19 -19 -82 40 -69 65 -101 79 -144 63
l-28 -11 5 42 c7 49 -8 86 -53 128 -51 48 -102 58 -161 33z m93 -140 c41 -40
31 -78 -43 -165 l-30 -34 -58 53 c-33 30 -60 57 -62 61 -1 3 20 30 47 58 42
44 56 52 86 52 25 0 43 -8 60 -25z"/>
<path d="M6233 2038 c-19 -23 -53 -97 -53 -113 0 -33 36 -9 64 44 25 46 26 55
14 67 -12 12 -17 13 -25 2z"/>
<path d="M6062 2028 c-21 -27 -52 -99 -47 -108 14 -22 36 -7 61 41 24 48 26
79 6 79 -5 0 -14 -6 -20 -12z"/>
<path d="M1610 1975 l-34 -35 23 -24 c12 -13 18 -27 13 -30 -5 -3 -106 -50
-225 -105 -211 -96 -216 -98 -233 -80 -17 19 -18 19 -51 -13 -18 -18 -32 -35
-31 -39 2 -4 38 -44 82 -88 l78 -81 33 27 c39 33 42 44 15 61 -11 7 -20 16
-20 20 0 11 95 56 107 51 5 -2 38 -35 73 -72 l63 -68 -23 -49 c-13 -28 -26
-50 -29 -50 -2 0 -15 10 -28 22 l-23 22 -35 -34 -35 -34 87 -88 c48 -48 90
-88 93 -88 3 0 20 14 38 31 l33 30 -23 19 -23 19 109 213 c60 117 113 217 118
223 5 5 14 1 24 -13 20 -29 35 -28 69 8 l28 29 -91 98 c-49 54 -103 110 -119
125 l-29 28 -34 -35z m-4 -285 l-51 -100 -50 51 c-27 28 -45 53 -40 56 14 6
190 91 191 92 0 1 -22 -44 -50 -99z"/>
<path d="M644 1986 c-9 -23 45 -116 68 -116 24 0 22 16 -10 74 -29 53 -48 67
-58 42z"/>
<path d="M550 1843 c0 -27 58 -113 75 -113 22 0 19 18 -12 77 -28 53 -63 73
-63 36z"/>
<path d="M5932 1798 c-25 -39 -30 -54 -21 -64 6 -8 16 -11 21 -8 15 9 68 96
68 111 0 30 -37 9 -68 -39z"/>
<path d="M6101 1794 c-31 -53 -35 -84 -11 -84 15 0 70 92 68 114 -5 37 -26 26
-57 -30z"/>
<path d="M745 1801 c-8 -14 64 -123 78 -118 21 7 17 31 -13 80 -29 45 -52 58
-65 38z"/>
<path d="M5820 1626 c-39 -52 -45 -76 -17 -76 7 0 30 23 51 51 34 45 36 53 23
66 -13 13 -20 9 -57 -41z"/>
<path d="M665 1659 c-8 -12 60 -119 75 -119 24 0 20 33 -11 80 -32 49 -51 61
-64 39z"/>
<path d="M5986 1610 c-38 -53 -45 -80 -21 -80 18 0 86 89 82 109 -5 30 -26 20
-61 -29z"/>
<path d="M1990 1618 c-21 -34 -26 -58 -12 -58 5 0 17 -6 27 -14 17 -12 13 -23
-84 -192 -145 -252 -126 -227 -162 -208 -17 8 -32 14 -33 12 -16 -22 -47 -80
-45 -82 15 -12 391 -226 397 -226 14 0 104 159 97 171 -6 9 -78 49 -89 49 -3
0 -15 -18 -26 -40 -11 -22 -23 -40 -26 -40 -9 0 -134 71 -134 77 0 4 163 289
212 371 l20 33 34 -20 34 -20 25 39 c14 22 25 42 25 44 0 5 -226 136 -235 136
-3 0 -14 -15 -25 -32z"/>
<path d="M864 1626 c-5 -14 61 -116 76 -116 4 0 12 6 18 13 8 9 0 26 -29 65
-41 54 -56 62 -65 38z"/>
<path d="M4526 1550 c-71 -49 -131 -91 -133 -94 -7 -7 37 -76 48 -76 5 0 20 7
33 15 l23 16 33 -123 c18 -68 46 -176 63 -241 l30 -118 -21 -15 -22 -15 26
-39 c15 -22 29 -40 31 -40 8 0 193 131 193 137 0 11 -42 73 -49 73 -3 0 -17
-7 -29 -16 -13 -9 -25 -14 -26 -13 -2 2 -10 28 -19 57 l-15 52 80 55 c44 30
83 55 87 55 4 0 27 -14 50 -32 l44 -32 -28 -22 -27 -21 24 -37 c12 -19 28 -36
34 -36 9 0 177 110 198 130 5 5 -1 24 -14 44 -21 36 -43 46 -55 26 -3 -5 -12
-10 -20 -10 -9 0 -324 229 -395 287 -2 2 9 14 24 27 l29 22 -24 37 c-13 20
-28 37 -34 36 -5 0 -68 -40 -139 -89z m165 -192 c43 -34 79 -64 79 -68 0 -4
-24 -23 -53 -43 l-53 -35 -31 104 c-16 57 -28 104 -26 104 2 0 40 -28 84 -62z"/>
<path d="M5690 1459 c-38 -45 -47 -79 -21 -79 13 0 91 90 91 105 0 32 -31 21
-70 -26z"/>
<path d="M793 1475 c-5 -15 3 -29 55 -87 22 -24 52 -29 52 -8 0 12 -81 110
-91 110 -5 0 -12 -7 -16 -15z"/>
<path d="M5850 1424 c-39 -52 -44 -74 -16 -74 15 0 86 87 86 106 0 6 -6 14
-14 17 -9 4 -29 -14 -56 -49z"/>
<path d="M994 1455 c-7 -18 66 -106 86 -103 24 5 18 24 -23 73 -40 47 -54 54
-63 30z"/>
<path d="M4030 1328 c-129 -38 -236 -70 -238 -72 -4 -5 38 -159 47 -175 5 -8
22 -7 59 4 29 9 52 17 52 19 0 2 -7 22 -14 44 -16 45 -16 47 31 57 37 7 22 42
113 -275 l47 -165 -32 -10 c-19 -5 -36 -13 -40 -16 -12 -13 15 -89 31 -89 12
0 256 68 271 75 1 0 -4 21 -11 45 -12 38 -17 45 -37 42 -13 -1 -32 -4 -43 -5
-16 -2 -27 28 -82 218 -62 218 -64 234 -27 235 6 0 18 3 26 6 10 4 17 -7 26
-40 6 -25 13 -46 14 -46 2 0 27 7 56 16 45 13 51 18 46 36 -4 11 -15 50 -26
86 -10 36 -22 69 -26 72 -5 4 -114 -24 -243 -62z"/>
<path d="M2481 1368 c-24 -66 -24 -68 8 -79 17 -6 31 -15 31 -19 0 -4 -32
-105 -70 -224 l-71 -215 -25 9 c-38 15 -41 13 -57 -35 l-16 -44 215 -71 c117
-38 218 -70 223 -70 5 0 22 37 37 83 15 45 29 87 31 93 4 10 -73 44 -98 44 -4
0 -13 -17 -19 -37 -7 -21 -16 -42 -20 -46 -11 -12 -152 33 -147 47 2 6 35 107
72 224 57 175 72 212 84 206 43 -18 61 -16 69 7 27 71 34 63 -100 108 -68 23
-127 41 -131 41 -4 0 -11 -10 -16 -22z"/>
<path d="M5548 1298 c-42 -46 -48 -68 -19 -68 21 0 91 75 91 97 0 25 -35 11
-72 -29z"/>
<path d="M933 1305 c-3 -10 10 -34 34 -62 44 -53 60 -62 69 -39 4 9 -10 34
-37 66 -45 53 -56 59 -66 35z"/>
<path d="M1135 1300 c-7 -11 21 -53 59 -89 21 -20 28 -22 41 -11 13 11 9 19
-28 61 -42 48 -60 58 -72 39z"/>
<path d="M5704 1252 c-39 -45 -47 -72 -19 -72 18 0 97 88 92 103 -8 25 -34 15
-73 -31z"/>
<path d="M3613 1242 c-35 -3 -43 -7 -43 -23 0 -18 -2 -19 -30 -4 -81 42 -181
26 -246 -39 -68 -67 -79 -155 -30 -229 33 -48 76 -72 168 -91 158 -32 188 -51
188 -115 0 -77 -107 -119 -180 -69 -19 13 -46 43 -59 67 -24 43 -24 43 -69 37
-25 -3 -47 -8 -49 -9 -4 -4 17 -220 22 -225 2 -2 24 0 49 3 40 6 46 11 46 31
l0 23 34 -20 c44 -26 128 -35 186 -19 65 17 124 80 138 145 11 52 4 114 -16
151 -30 57 -110 94 -265 124 -33 7 -67 20 -78 31 -39 39 -12 110 46 125 59 15
111 -14 160 -88 7 -11 22 -14 54 -10 l43 4 -7 97 c-4 53 -10 98 -13 101 -4 3
-26 4 -49 2z"/>
<path d="M5395 1149 c-48 -44 -54 -56 -30 -65 19 -7 104 65 105 89 0 28 -28
19 -75 -24z"/>
<path d="M1284 1148 c-8 -12 76 -98 96 -98 6 0 13 7 16 15 4 10 -9 29 -37 55
-46 41 -63 48 -75 28z"/>
<path d="M1084 1139 c-9 -15 85 -109 102 -102 23 9 16 25 -28 70 -43 44 -61
52 -74 32z"/>
<path d="M5551 1096 c-29 -29 -42 -50 -38 -60 4 -9 10 -16 15 -16 16 0 104 98
98 109 -13 20 -31 12 -75 -33z"/>
<path d="M5233 1012 c-46 -40 -54 -62 -25 -62 26 0 102 61 102 82 0 29 -31 20
-77 -20z"/>
<path d="M1444 1008 c-12 -19 86 -94 111 -84 25 9 17 23 -34 60 -52 38 -66 43
-77 24z"/>
<path d="M1244 988 c-8 -13 79 -98 101 -98 33 0 25 25 -21 66 -51 45 -68 52
-80 32z"/>
<path d="M5388 949 c-49 -42 -61 -69 -30 -69 28 0 107 74 99 93 -9 24 -16 21
-69 -24z"/>
<path d="M5068 889 c-47 -31 -59 -51 -37 -64 15 -10 109 57 109 78 0 25 -18
21 -72 -14z"/>
<path d="M1621 887 c-8 -11 -5 -19 12 -34 37 -33 70 -53 89 -53 31 0 19 28
-24 58 -63 42 -65 43 -77 29z"/>
<path d="M1420 841 c0 -22 94 -96 110 -86 21 13 9 34 -39 69 -55 41 -71 44
-71 17z"/>
<path d="M5213 813 c-53 -37 -65 -56 -39 -66 19 -8 118 63 114 81 -5 26 -21
23 -75 -15z"/>
<path d="M4892 779 c-50 -29 -64 -51 -42 -64 11 -7 89 35 108 58 10 11 9 17
-1 25 -9 8 -26 3 -65 -19z"/>
<path d="M1794 769 c-8 -14 9 -30 63 -59 39 -22 73 -22 73 -1 0 10 -101 71
-118 71 -6 0 -14 -5 -18 -11z"/>
<path d="M1600 712 c0 -21 103 -87 119 -77 22 13 10 33 -40 64 -57 35 -79 39
-79 13z"/>
<path d="M5028 691 c-55 -35 -62 -45 -45 -60 17 -13 122 46 122 69 0 25 -28
21 -77 -9z"/>
<path d="M4698 674 c-45 -23 -60 -46 -39 -59 16 -10 122 48 119 65 -5 23 -29
22 -80 -6z"/>
<path d="M1985 670 c-10 -16 3 -29 56 -56 40 -20 54 -23 65 -13 19 16 11 25
-46 54 -54 28 -66 30 -75 15z"/>
<path d="M1797 613 c-17 -16 -3 -34 48 -63 30 -17 59 -29 65 -25 22 14 7 35
-45 64 -60 34 -59 34 -68 24z"/>
<path d="M4502 585 c-54 -25 -65 -48 -26 -52 27 -4 109 39 109 57 0 23 -25 21
-83 -5z"/>
<path d="M4833 579 c-56 -33 -69 -59 -30 -59 30 0 120 57 114 73 -7 21 -30 17
-84 -14z"/>
<path d="M2177 583 c-4 -3 -7 -10 -7 -15 0 -13 110 -60 126 -54 28 11 12 34
-37 55 -55 22 -71 25 -82 14z"/>
<path d="M4300 512 c-48 -19 -60 -45 -23 -50 31 -5 113 34 113 52 0 21 -32 20
-90 -2z"/>
<path d="M1997 513 c-17 -17 -3 -35 47 -60 51 -25 86 -26 86 -3 0 5 -27 23
-60 40 -66 33 -64 33 -73 23z"/>
<path d="M2375 510 c-11 -18 14 -38 68 -54 90 -26 94 19 5 47 -64 20 -65 20
-73 7z"/>
<path d="M4633 484 c-50 -24 -65 -45 -43 -59 17 -11 131 46 128 64 -5 24 -27
22 -85 -5z"/>
<path d="M4107 455 c-57 -16 -61 -19 -53 -40 5 -13 14 -15 38 -10 72 14 99 27
96 43 -4 22 -23 23 -81 7z"/>
<path d="M2584 446 c-9 -24 3 -34 62 -47 39 -9 58 -9 65 -2 17 17 2 31 -44 43
-23 6 -50 13 -60 16 -10 3 -20 -1 -23 -10z"/>
<path d="M2197 423 c-18 -17 -2 -33 48 -52 69 -26 85 -26 85 -2 0 13 -16 24
-59 40 -65 24 -65 24 -74 14z"/>
<path d="M3890 407 c-59 -16 -62 -42 -5 -41 64 1 97 12 93 32 -4 21 -30 24
-88 9z"/>
<path d="M4425 401 c-48 -17 -68 -42 -45 -56 6 -4 38 3 71 15 43 17 59 27 59
41 0 23 -19 23 -85 0z"/>
<path d="M2785 399 c-12 -18 19 -36 76 -43 50 -7 69 -3 69 14 0 25 -132 51
-145 29z"/>
<path d="M3693 380 c-59 -6 -68 -12 -59 -36 5 -14 15 -16 63 -10 63 7 73 12
73 31 0 18 -17 22 -77 15z"/>
<path d="M2995 369 c-13 -20 25 -39 81 -39 51 0 76 13 58 30 -17 15 -131 23
-139 9z"/>
<path d="M3477 362 c-49 -3 -58 -6 -55 -20 5 -25 131 -25 136 -1 4 21 -10 25
-81 21z"/>
<path d="M2409 350 c-23 -15 0 -37 57 -53 43 -13 61 -14 71 -5 12 9 12 13 1
24 -19 17 -114 43 -129 34z"/>
<path d="M3210 340 c0 -18 6 -20 71 -20 62 0 70 2 67 18 -3 14 -16 18 -71 20
-62 3 -67 1 -67 -18z"/>
<path d="M4213 333 c-40 -12 -53 -20 -53 -34 0 -23 19 -24 89 -3 39 11 51 19
49 32 -4 22 -23 24 -85 5z"/>
<path d="M2621 287 c-16 -20 3 -34 68 -48 37 -8 56 -8 63 -1 19 19 0 39 -44
45 -24 3 -51 9 -59 12 -9 3 -21 0 -28 -8z"/>
<path d="M3992 280 c-44 -10 -60 -26 -44 -42 9 -9 25 -9 69 0 61 13 79 24 69
41 -8 12 -45 13 -94 1z"/>
<path d="M2841 246 c-19 -23 7 -38 74 -44 62 -4 67 -3 63 14 -2 15 -18 21 -66
30 -46 8 -64 8 -71 0z"/>
<path d="M3765 241 c-25 -4 -41 -12 -43 -22 -4 -23 14 -27 76 -19 55 7 79 21
68 39 -8 12 -35 12 -101 2z"/>
<path d="M3062 217 c-19 -22 5 -35 71 -38 62 -3 73 2 64 26 -4 10 -19 15 -44
15 -21 0 -47 3 -59 6 -12 3 -25 -1 -32 -9z"/>
<path d="M3560 221 c-41 -5 -56 -10 -58 -23 -4 -20 -1 -20 78 -18 62 2 79 12
60 35 -7 8 -15 14 -19 13 -3 -1 -31 -4 -61 -7z"/>
<path d="M3283 204 c-9 -25 9 -34 72 -34 63 0 87 12 67 32 -16 16 -133 17
-139 2z"/>
</g>
</svg>
